# xmcd
#
# Track frame offsets:
#	150
#	16595
#	26207
#	39067
#	53845
#	72845
#	81700
#	94952
#	114702
#	128127
#	141567
#	153390
#	167760
#	184025
#	196925
#	208712
#	220397
#	230717
#	243650
#	256075
#	270320
#	285382
#	296277
#	309172
#
# Disc length: 4401 seconds
#
# Revision: 1
# Processed by: cddbd v1.5.2PL0 Copyright (c) Steve Scherf et al.
# Submitted via: audiograbber 1.83.01
#
DISCID=5b112f18
DTITLE=Ray Charles - Greatest Hits
DYEAR=1995
DGENRE=Soul
TTITLE0=Georgia On My Mind
TTITLE1=Busted
TTITLE2=Unchain My Heart
TTITLE3=Here We Go Again
TTITLE4=I Can't Stop Loving You
TTITLE5=Hit The Road Jack
TTITLE6=Crying Time
TTITLE7=That Licky Old Sun
TTITLE8=Eleanor Rigby
TTITLE9=Let's Go Get Stoned
TTITLE10=Don't Set Me Free
TTITLE11=Hide Nor Hair
TTITLE12=America The Beautiful
TTITLE13=I've Got A Woman
TTITLE14=What Would I Do Without You
TTITLE15=Hallelujah I Love Her So
TTITLE16=It's Alright
TTITLE17=Ain't That Love
TTITLE18=That's Enough
TTITLE19=What'd I Say
TTITLE20=Drown In My Own Tears
TTITLE21=Just For A Thrill
TTITLE22=Alexander's Ragtime Band
TTITLE23=What'd I Say (Live)
EXTD=Ring RCD 1088
EXTT0=
EXTT1=
EXTT2=
EXTT3=
EXTT4=
EXTT5=
EXTT6=
EXTT7=
EXTT8=
EXTT9=
EXTT10=
EXTT11=
EXTT12=
EXTT13=
EXTT14=
EXTT15=
EXTT16=
EXTT17=
EXTT18=
EXTT19=
EXTT20=
EXTT21=
EXTT22=
EXTT23=
PLAYORDER=
